<svg width="600" height="128" viewBox="0 0 600 128" fill="none" xmlns="http://www.w3.org/2000/svg">
<path d="M23.5071 114.451C23.5071 115.278 23.2464 115.936 22.7251 116.423C22.2037 116.899 21.5067 117.205 20.6341 117.341V117.409C21.6541 117.545 22.4304 117.862 22.9631 118.361C23.4957 118.86 23.7621 119.511 23.7621 120.316C23.7621 121.03 23.5807 121.659 23.2181 122.203C22.8554 122.736 22.3114 123.155 21.5861 123.461C20.8607 123.767 19.9541 123.92 18.8661 123.92C18.2087 123.92 17.5797 123.869 16.9791 123.767C16.3897 123.676 15.8401 123.506 15.3301 123.257V121.863C15.6814 122.033 16.0554 122.18 16.4521 122.305C16.8601 122.418 17.2681 122.509 17.6761 122.577C18.0841 122.634 18.4751 122.662 18.8491 122.662C19.9371 122.662 20.7587 122.458 21.3141 122.05C21.8807 121.642 22.1641 121.064 22.1641 120.316C22.1641 119.545 21.8354 118.984 21.1781 118.633C20.5207 118.282 19.6027 118.106 18.4241 118.106H16.6901V116.831H18.3391C19.1437 116.831 19.8067 116.74 20.3281 116.559C20.8607 116.378 21.2574 116.123 21.5181 115.794C21.7901 115.454 21.9261 115.057 21.9261 114.604C21.9261 113.992 21.6994 113.522 21.2461 113.193C20.7927 112.864 20.2034 112.7 19.4781 112.7C18.7187 112.7 18.0841 112.796 17.5741 112.989C17.0754 113.182 16.5881 113.431 16.1121 113.737L15.3811 112.7C15.6984 112.462 16.0611 112.252 16.4691 112.071C16.8884 111.878 17.3531 111.725 17.8631 111.612C18.3731 111.499 18.9171 111.442 19.4951 111.442C20.3677 111.442 21.0987 111.572 21.6881 111.833C22.2887 112.094 22.7421 112.451 23.0481 112.904C23.3541 113.346 23.5071 113.862 23.5071 114.451ZM33.9432 123.75L32.4812 119.993H27.6702L26.2252 123.75H24.6782L29.4212 111.561H30.7982L35.5242 123.75H33.9432ZM30.6622 114.961C30.6282 114.87 30.5716 114.706 30.4922 114.468C30.4129 114.23 30.3336 113.986 30.2542 113.737C30.1862 113.476 30.1296 113.278 30.0842 113.142C30.0276 113.369 29.9652 113.601 29.8972 113.839C29.8406 114.066 29.7782 114.275 29.7102 114.468C29.6536 114.661 29.6026 114.825 29.5572 114.961L28.1802 118.633H32.0222L30.6622 114.961ZM40.8396 118.718L37.6946 123.75H35.9096L39.3096 118.446C38.879 118.299 38.471 118.095 38.0856 117.834C37.7116 117.573 37.4056 117.216 37.1676 116.763C36.9296 116.31 36.8106 115.726 36.8106 115.012C36.8106 113.913 37.1903 113.074 37.9496 112.496C38.709 111.907 39.8423 111.612 41.3496 111.612H44.7496V123.75H43.2196V118.718H40.8396ZM41.3836 112.921C40.7376 112.921 40.1936 112.995 39.7516 113.142C39.3096 113.289 38.9696 113.522 38.7316 113.839C38.505 114.156 38.3916 114.57 38.3916 115.08C38.3916 115.828 38.641 116.406 39.1396 116.814C39.6383 117.222 40.409 117.426 41.4516 117.426H43.2196V112.921H41.3836ZM51.5101 111.612C52.5187 111.612 53.3631 111.708 54.0431 111.901C54.7344 112.094 55.2501 112.411 55.5901 112.853C55.9414 113.295 56.1171 113.884 56.1171 114.621C56.1171 115.097 56.0264 115.522 55.8451 115.896C55.6751 116.259 55.4144 116.565 55.0631 116.814C54.7231 117.052 54.3037 117.216 53.8051 117.307V117.392C54.3151 117.471 54.7741 117.619 55.1821 117.834C55.6014 118.049 55.9301 118.355 56.1681 118.752C56.4061 119.149 56.5251 119.664 56.5251 120.299C56.5251 121.036 56.3551 121.665 56.0151 122.186C55.6751 122.696 55.1877 123.087 54.5531 123.359C53.9297 123.62 53.1817 123.75 52.3091 123.75H48.0421V111.612H51.5101ZM51.8161 116.78C52.8587 116.78 53.5727 116.616 53.9581 116.287C54.3434 115.947 54.5361 115.448 54.5361 114.791C54.5361 114.122 54.2981 113.646 53.8221 113.363C53.3574 113.068 52.6094 112.921 51.5781 112.921H49.5721V116.78H51.8161ZM49.5721 118.055V122.458H52.0201C53.0967 122.458 53.8447 122.248 54.2641 121.829C54.6834 121.41 54.8931 120.86 54.8931 120.18C54.8931 119.749 54.7967 119.375 54.6041 119.058C54.4227 118.741 54.1111 118.497 53.6691 118.327C53.2384 118.146 52.6491 118.055 51.9011 118.055H49.5721ZM67.9557 123.75H66.1197L60.6287 117.596V123.75H59.0987V111.612H60.6287V117.494L65.9837 111.612H67.7177L62.4477 117.511L67.9557 123.75ZM77.2235 123.75L75.7615 119.993H70.9505L69.5055 123.75H67.9585L72.7015 111.561H74.0785L78.8045 123.75H77.2235ZM73.9425 114.961C73.9085 114.87 73.8518 114.706 73.7725 114.468C73.6932 114.23 73.6138 113.986 73.5345 113.737C73.4665 113.476 73.4098 113.278 73.3645 113.142C73.3078 113.369 73.2455 113.601 73.1775 113.839C73.1208 114.066 73.0585 114.275 72.9905 114.468C72.9338 114.661 72.8828 114.825 72.8375 114.961L71.4605 118.633H75.3025L73.9425 114.961Z" fill="black"/>
<path d="M142.972 123.75V111.612H152.084V123.75H150.571V112.955H144.502V123.75H142.972ZM165.998 117.664C165.998 118.605 165.879 119.46 165.641 120.231C165.403 120.99 165.046 121.648 164.57 122.203C164.105 122.758 163.521 123.183 162.819 123.478C162.127 123.773 161.323 123.92 160.405 123.92C159.453 123.92 158.625 123.773 157.923 123.478C157.22 123.172 156.636 122.747 156.172 122.203C155.707 121.648 155.361 120.985 155.135 120.214C154.908 119.443 154.795 118.588 154.795 117.647C154.795 116.4 154.999 115.312 155.407 114.383C155.815 113.454 156.432 112.728 157.26 112.207C158.098 111.686 159.152 111.425 160.422 111.425C161.634 111.425 162.654 111.686 163.482 112.207C164.309 112.717 164.932 113.442 165.352 114.383C165.782 115.312 165.998 116.406 165.998 117.664ZM156.41 117.664C156.41 118.684 156.551 119.562 156.835 120.299C157.118 121.036 157.554 121.602 158.144 121.999C158.744 122.396 159.498 122.594 160.405 122.594C161.323 122.594 162.071 122.396 162.649 121.999C163.238 121.602 163.674 121.036 163.958 120.299C164.241 119.562 164.383 118.684 164.383 117.664C164.383 116.134 164.065 114.938 163.431 114.077C162.796 113.204 161.793 112.768 160.422 112.768C159.504 112.768 158.744 112.966 158.144 113.363C157.554 113.748 157.118 114.309 156.835 115.046C156.551 115.771 156.41 116.644 156.41 117.664ZM176.533 111.612V122.39H178.08V126.946H176.618V123.75H168.271V126.946H166.809V122.39H167.744C168.152 121.687 168.537 120.9 168.9 120.027C169.274 119.154 169.603 118.242 169.886 117.29C170.169 116.327 170.402 115.363 170.583 114.4C170.764 113.437 170.878 112.507 170.923 111.612H176.533ZM172.266 112.989C172.221 113.646 172.107 114.389 171.926 115.216C171.756 116.043 171.535 116.893 171.263 117.766C171.002 118.627 170.708 119.46 170.379 120.265C170.062 121.07 169.722 121.778 169.359 122.39H175.02V112.989H172.266ZM183.952 123.75H182.422V112.955H178.631V111.612H187.726V112.955H183.952V123.75ZM193.024 111.612C194.033 111.612 194.877 111.708 195.557 111.901C196.249 112.094 196.764 112.411 197.104 112.853C197.456 113.295 197.631 113.884 197.631 114.621C197.631 115.097 197.541 115.522 197.359 115.896C197.189 116.259 196.929 116.565 196.577 116.814C196.237 117.052 195.818 117.216 195.319 117.307V117.392C195.829 117.471 196.288 117.619 196.696 117.834C197.116 118.049 197.444 118.355 197.682 118.752C197.92 119.149 198.039 119.664 198.039 120.299C198.039 121.036 197.869 121.665 197.529 122.186C197.189 122.696 196.702 123.087 196.067 123.359C195.444 123.62 194.696 123.75 193.823 123.75H189.556V111.612H193.024ZM193.33 116.78C194.373 116.78 195.087 116.616 195.472 116.287C195.858 115.947 196.05 115.448 196.05 114.791C196.05 114.122 195.812 113.646 195.336 113.363C194.872 113.068 194.124 112.921 193.092 112.921H191.086V116.78H193.33ZM191.086 118.055V122.458H193.534C194.611 122.458 195.359 122.248 195.778 121.829C196.198 121.41 196.407 120.86 196.407 120.18C196.407 119.749 196.311 119.375 196.118 119.058C195.937 118.741 195.625 118.497 195.183 118.327C194.753 118.146 194.163 118.055 193.415 118.055H191.086ZM207.396 123.75H200.613V111.612H207.396V112.955H202.143V116.746H207.09V118.072H202.143V122.407H207.396V123.75ZM213.272 111.612C214.859 111.612 216.015 111.924 216.74 112.547C217.465 113.17 217.828 114.049 217.828 115.182C217.828 115.681 217.743 116.162 217.573 116.627C217.414 117.08 217.148 117.488 216.774 117.851C216.4 118.214 215.901 118.503 215.278 118.718C214.655 118.922 213.89 119.024 212.983 119.024H211.589V123.75H210.059V111.612H213.272ZM213.136 112.921H211.589V117.715H212.813C213.584 117.715 214.224 117.636 214.734 117.477C215.244 117.307 215.624 117.041 215.873 116.678C216.122 116.315 216.247 115.839 216.247 115.25C216.247 114.468 215.998 113.884 215.499 113.499C215 113.114 214.213 112.921 213.136 112.921ZM223.267 117.511L218.558 111.612H220.258L224.899 117.494V111.612H226.361V117.494L231.002 111.612H232.702L227.993 117.494L232.855 123.75H231.104L226.361 117.596V123.75H224.899V117.596L220.139 123.75H218.388L223.267 117.511ZM242.707 111.612V122.39H244.254V126.946H242.792V123.75H234.445V126.946H232.983V122.39H233.918C234.326 121.687 234.711 120.9 235.074 120.027C235.448 119.154 235.777 118.242 236.06 117.29C236.343 116.327 236.576 115.363 236.757 114.4C236.938 113.437 237.052 112.507 237.097 111.612H242.707ZM238.44 112.989C238.395 113.646 238.281 114.389 238.1 115.216C237.93 116.043 237.709 116.893 237.437 117.766C237.176 118.627 236.882 119.46 236.553 120.265C236.236 121.07 235.896 121.778 235.533 122.39H241.194V112.989H238.44ZM253.067 123.75H246.284V111.612H253.067V112.955H247.814V116.746H252.761V118.072H247.814V122.407H253.067V123.75ZM265.012 123.75H263.482V118.089H257.26V123.75H255.73V111.612H257.26V116.746H263.482V111.612H265.012V123.75ZM268.348 111.612H269.776V118.276C269.776 118.559 269.77 118.871 269.759 119.211C269.759 119.54 269.753 119.868 269.742 120.197C269.73 120.526 269.713 120.82 269.691 121.081C269.679 121.33 269.668 121.523 269.657 121.659H269.725L276.406 111.612H278.106V123.75H276.678V117.154C276.678 116.848 276.683 116.519 276.695 116.168C276.706 115.805 276.717 115.46 276.729 115.131C276.751 114.791 276.768 114.491 276.78 114.23C276.791 113.969 276.802 113.777 276.814 113.652H276.746L270.048 123.75H268.348V111.612ZM288.162 123.75H281.379V111.612H288.162V112.955H282.909V116.746H287.856V118.072H282.909V122.407H288.162V123.75Z" fill="black"/>
<path d="M532.729 117.664C532.729 118.605 532.61 119.46 532.372 120.231C532.134 120.99 531.777 121.648 531.301 122.203C530.836 122.758 530.252 123.183 529.55 123.478C528.858 123.773 528.054 123.92 527.136 123.92C526.184 123.92 525.356 123.773 524.654 123.478C523.951 123.172 523.367 122.747 522.903 122.203C522.438 121.648 522.092 120.985 521.866 120.214C521.639 119.443 521.526 118.588 521.526 117.647C521.526 116.4 521.73 115.312 522.138 114.383C522.546 113.454 523.163 112.728 523.991 112.207C524.829 111.686 525.883 111.425 527.153 111.425C528.365 111.425 529.385 111.686 530.213 112.207C531.04 112.717 531.663 113.442 532.083 114.383C532.513 115.312 532.729 116.406 532.729 117.664ZM523.141 117.664C523.141 118.684 523.282 119.562 523.566 120.299C523.849 121.036 524.285 121.602 524.875 121.999C525.475 122.396 526.229 122.594 527.136 122.594C528.054 122.594 528.802 122.396 529.38 121.999C529.969 121.602 530.405 121.036 530.689 120.299C530.972 119.562 531.114 118.684 531.114 117.664C531.114 116.134 530.796 114.938 530.162 114.077C529.527 113.204 528.524 112.768 527.153 112.768C526.235 112.768 525.475 112.966 524.875 113.363C524.285 113.748 523.849 114.309 523.566 115.046C523.282 115.771 523.141 116.644 523.141 117.664ZM535.419 123.75V111.612H544.531V123.75H543.018V112.955H536.949V123.75H535.419ZM556.592 123.75H555.062V112.955H551.22C551.14 113.578 551.055 114.236 550.965 114.927C550.874 115.607 550.778 116.281 550.676 116.95C550.585 117.619 550.494 118.248 550.404 118.837C550.313 119.426 550.222 119.942 550.132 120.384C549.984 121.143 549.803 121.789 549.588 122.322C549.372 122.855 549.083 123.257 548.721 123.529C548.369 123.801 547.905 123.937 547.327 123.937C547.134 123.937 546.936 123.914 546.732 123.869C546.539 123.835 546.369 123.79 546.222 123.733V122.458C546.346 122.515 546.488 122.566 546.647 122.611C546.805 122.645 546.975 122.662 547.157 122.662C547.497 122.662 547.763 122.526 547.956 122.254C548.16 121.971 548.318 121.625 548.432 121.217C548.545 120.798 548.641 120.384 548.721 119.976C548.789 119.647 548.868 119.211 548.959 118.667C549.049 118.112 549.146 117.466 549.248 116.729C549.361 115.992 549.474 115.193 549.588 114.332C549.712 113.459 549.831 112.553 549.945 111.612H556.592V123.75ZM567.506 123.75L566.044 119.993H561.233L559.788 123.75H558.241L562.984 111.561H564.361L569.087 123.75H567.506ZM564.225 114.961C564.191 114.87 564.134 114.706 564.055 114.468C563.975 114.23 563.896 113.986 563.817 113.737C563.749 113.476 563.692 113.278 563.647 113.142C563.59 113.369 563.528 113.601 563.46 113.839C563.403 114.066 563.341 114.275 563.273 114.468C563.216 114.661 563.165 114.825 563.12 114.961L561.743 118.633H565.585L564.225 114.961ZM573.394 123.75H571.864V112.955H568.073V111.612H577.168V112.955H573.394V123.75ZM585.419 123.75L583.957 119.993H579.146L577.701 123.75H576.154L580.897 111.561H582.274L587 123.75H585.419ZM582.138 114.961C582.104 114.87 582.047 114.706 581.968 114.468C581.888 114.23 581.809 113.986 581.73 113.737C581.662 113.476 581.605 113.278 581.56 113.142C581.503 113.369 581.441 113.601 581.373 113.839C581.316 114.066 581.254 114.275 581.186 114.468C581.129 114.661 581.078 114.825 581.033 114.961L579.656 118.633H583.498L582.138 114.961Z" fill="black"/>
<path d="M354.867 111.612C356.454 111.612 357.61 111.924 358.335 112.547C359.06 113.17 359.423 114.049 359.423 115.182C359.423 115.681 359.338 116.162 359.168 116.627C359.009 117.08 358.743 117.488 358.369 117.851C357.995 118.214 357.496 118.503 356.873 118.718C356.25 118.922 355.485 119.024 354.578 119.024H353.184V123.75H351.654V111.612H354.867ZM354.731 112.921H353.184V117.715H354.408C355.179 117.715 355.819 117.636 356.329 117.477C356.839 117.307 357.219 117.041 357.468 116.678C357.717 116.315 357.842 115.839 357.842 115.25C357.842 114.468 357.593 113.884 357.094 113.499C356.595 113.114 355.808 112.921 354.731 112.921ZM368.73 123.75H361.947V111.612H368.73V112.955H363.477V116.746H368.424V118.072H363.477V122.407H368.73V123.75ZM376.748 123.75L372.753 113.108H372.685C372.708 113.335 372.725 113.624 372.736 113.975C372.759 114.326 372.776 114.712 372.787 115.131C372.798 115.539 372.804 115.958 372.804 116.389V123.75H371.393V111.612H373.654L377.394 121.557H377.462L381.27 111.612H383.514V123.75H382.001V116.287C382.001 115.89 382.007 115.499 382.018 115.114C382.029 114.717 382.046 114.349 382.069 114.009C382.092 113.658 382.109 113.363 382.12 113.125H382.052L378.006 123.75H376.748ZM397.407 117.664C397.407 118.605 397.288 119.46 397.05 120.231C396.812 120.99 396.455 121.648 395.979 122.203C395.514 122.758 394.931 123.183 394.228 123.478C393.537 123.773 392.732 123.92 391.814 123.92C390.862 123.92 390.035 123.773 389.332 123.478C388.629 123.172 388.046 122.747 387.581 122.203C387.116 121.648 386.771 120.985 386.544 120.214C386.317 119.443 386.204 118.588 386.204 117.647C386.204 116.4 386.408 115.312 386.816 114.383C387.224 113.454 387.842 112.728 388.669 112.207C389.508 111.686 390.562 111.425 391.831 111.425C393.044 111.425 394.064 111.686 394.891 112.207C395.718 112.717 396.342 113.442 396.761 114.383C397.192 115.312 397.407 116.406 397.407 117.664ZM387.819 117.664C387.819 118.684 387.961 119.562 388.244 120.299C388.527 121.036 388.964 121.602 389.553 121.999C390.154 122.396 390.907 122.594 391.814 122.594C392.732 122.594 393.48 122.396 394.058 121.999C394.647 121.602 395.084 121.036 395.367 120.299C395.65 119.562 395.792 118.684 395.792 117.664C395.792 116.134 395.475 114.938 394.84 114.077C394.205 113.204 393.202 112.768 391.831 112.768C390.913 112.768 390.154 112.966 389.553 113.363C388.964 113.748 388.527 114.309 388.244 115.046C387.961 115.771 387.819 116.644 387.819 117.664ZM409.379 123.75H407.849V118.089H401.627V123.75H400.097V111.612H401.627V116.746H407.849V111.612H409.379V123.75ZM416.54 123.75H415.01V112.955H411.219V111.612H420.314V112.955H416.54V123.75Z" fill="black"/>
<rect width="92" height="92" transform="translate(0.75 0.75)" fill="white"/>
<circle cx="46.75" cy="46.75" r="45" stroke="#36175E" stroke-width="2"/>
<path fill-rule="evenodd" clip-rule="evenodd" d="M27.4026 32.7811C41.1288 45.6094 46.2619 50.0833 47.2539 50.0833C48.2275 50.0833 55.9316 43.3822 66.8205 33.0633L68.207 31.75H47.2528C26.8162 31.75 26.326 31.7756 27.4026 32.7811ZM23.75 46.5539V59.2317L30.1845 52.8611C33.7235 49.3572 36.619 46.3367 36.619 46.1483C36.619 45.96 33.7235 43.1222 30.1845 39.8411L23.75 33.8767V46.5539ZM64.0357 40.0939L57.6012 46.1622L64.1756 52.7033L70.75 59.2439V46.6083C70.75 39.6583 70.6873 33.9839 70.6101 33.9989C70.5329 34.0133 67.5747 36.7561 64.0357 40.0939ZM32.7024 55.3611L26.2863 61.75H47.25H68.2137L61.7976 55.3611C58.2687 51.8472 55.1561 48.9722 54.8808 48.9722C54.6049 48.9722 53.4115 49.8411 52.2275 50.9028C51.0441 51.9644 49.44 52.9911 48.6628 53.185C46.5377 53.7144 44.6588 53.0433 42.2725 50.9028C41.0885 49.8411 39.8951 48.9722 39.6192 48.9722C39.3439 48.9722 36.2313 51.8472 32.7024 55.3611Z" fill="#36175E"/>
<path d="M508.811 51.8106C509.396 51.2248 509.396 50.2751 508.811 49.6893L499.265 40.1434C498.679 39.5576 497.729 39.5576 497.143 40.1434C496.558 40.7292 496.558 41.6789 497.143 42.2647L505.629 50.75L497.143 59.2352C496.558 59.821 496.558 60.7708 497.143 61.3566C497.729 61.9424 498.679 61.9424 499.265 61.3566L508.811 51.8106ZM132.75 52.25L507.75 52.25L507.75 49.25L132.75 49.25L132.75 52.25Z" fill="#36175E"/>
<path d="M168.811 51.8107C169.396 51.2249 169.396 50.2751 168.811 49.6893L159.265 40.1434C158.679 39.5576 157.729 39.5576 157.143 40.1434C156.558 40.7292 156.558 41.6789 157.143 42.2647L165.629 50.75L157.143 59.2353C156.558 59.8211 156.558 60.7708 157.143 61.3566C157.729 61.9424 158.679 61.9424 159.265 61.3566L168.811 51.8107ZM92.75 52.25L167.75 52.25L167.75 49.25L92.75 49.25L92.75 52.25Z" fill="#36175E"/>
<rect width="92" height="92" transform="translate(169.75 0.75)" fill="white"/>
<circle cx="215.75" cy="46.75" r="45" stroke="#36175E" stroke-width="2"/>
<path fill-rule="evenodd" clip-rule="evenodd" d="M210.164 29.2735C209.216 30.1074 207.87 30.827 206.993 30.9681C204.385 31.3874 203.76 31.8285 203.146 33.6807C202.768 34.8216 202.024 35.843 201.055 36.5474C198.78 38.2028 198.578 38.5732 198.815 40.6664C198.989 42.2013 198.809 42.9791 197.891 44.6606L196.75 46.7487L197.891 48.8369C198.809 50.5184 198.989 51.2962 198.815 52.8311C198.578 54.9243 198.78 55.2946 201.055 56.95C202.024 57.6545 202.768 58.6758 203.146 59.8168C203.759 61.6681 204.386 62.1101 206.986 62.5281C207.846 62.6663 209.259 63.4167 210.248 64.261L211.994 65.75L214.122 65.1201C216.009 64.5614 216.49 64.5614 218.374 65.1188L220.499 65.7475L222.354 64.2332C223.457 63.332 224.866 62.6178 225.831 62.4695C228.226 62.1021 228.721 61.728 229.36 59.7957C229.731 58.6758 230.483 57.6499 231.445 56.95C233.72 55.2946 233.922 54.9243 233.685 52.8311C233.511 51.2962 233.691 50.5184 234.609 48.8369L235.75 46.7487L234.609 44.6606C233.691 42.9791 233.511 42.2013 233.685 40.6664C233.922 38.5732 233.72 38.2028 231.445 36.5474C230.483 35.8476 229.731 34.8216 229.36 33.7017C228.721 31.7695 228.226 31.3954 225.831 31.028C224.866 30.8797 223.457 30.1655 222.354 29.2643L220.499 27.75L218.37 28.3799C216.506 28.9318 215.993 28.9348 214.238 28.4039C213.135 28.0706 212.139 27.8039 212.022 27.8107C211.906 27.8178 211.07 28.476 210.164 29.2735ZM225.128 38.7582C225.128 39.15 215.987 53.4344 215.25 54.1954C214.887 54.5699 213.861 53.8507 211.024 51.2309C207.793 48.247 207.367 47.6988 207.925 47.2371C208.472 46.785 209.009 47.0972 211.397 49.2536C212.95 50.6566 214.374 51.8047 214.561 51.8047C214.747 51.8047 215.906 50.2407 217.135 48.3287C223.211 38.8808 223.894 37.9404 224.508 38.175C224.849 38.3056 225.128 38.5677 225.128 38.7582Z" fill="#36175E"/>
<circle cx="553.75" cy="46.75" r="45" stroke="#36175E" stroke-width="2"/>
<path fill-rule="evenodd" clip-rule="evenodd" d="M549.118 29.5313C537.498 32.6934 527.887 35.3868 527.76 35.5164C527.632 35.646 528.787 40.393 530.326 46.0656C532.992 55.8895 533.132 56.7204 533.282 63.5646L533.438 70.75H556.094H578.75V57.1996V43.6487L577.618 43.482C576.611 43.3331 576.202 42.2404 573.897 33.5165C572.474 28.1277 571.069 23.7323 570.776 23.7501C570.484 23.7678 560.737 26.3692 549.118 29.5313ZM565.208 30.2504C566.165 31.3467 567.287 32.0825 568.009 32.0872C570.733 32.1045 571.632 33.1611 572.894 37.8277C573.554 40.2708 574.098 42.5638 574.102 42.9228C574.108 43.4109 572.482 43.5761 567.666 43.5761C562.856 43.5761 561.222 43.4104 561.219 42.9228C561.203 39.2878 557.742 34.5266 554.465 33.632C549.556 32.2921 544.726 36.1701 544.726 41.4513V43.5761H539.055H533.384L533.349 46.3196L533.315 49.0631L532.584 46.7115C531.62 43.6105 531.547 43.8906 533.9 41.6843C535.034 40.6204 535.965 39.2591 535.969 38.6581C535.973 38.0577 536.269 36.9801 536.627 36.2631C537.204 35.1077 538.598 34.5925 548.864 31.7392C555.235 29.9682 561.16 28.4971 562.03 28.47C563.222 28.4334 564.002 28.8708 565.208 30.2504ZM565.45 37.4097C564.41 38.4632 564.739 40.3554 566.12 41.2725C567.314 42.0653 567.503 42.0653 568.697 41.2725C570.086 40.3497 570.295 39.3892 569.453 37.7932C568.848 36.6477 566.43 36.4162 565.45 37.4097ZM570.942 48.1951C571.851 49.8642 572.771 50.7207 574.432 51.4424L576.688 52.4227V58.1763V63.9299L575.15 64.7357C574.304 65.1793 573.255 66.2433 572.817 67.1008L572.022 68.6597H556.067H540.112L539.317 67.1008C538.879 66.2433 537.83 65.1793 536.984 64.7357L535.446 63.9299V58.1763V52.4227L537.737 51.4272C539.286 50.7542 540.308 49.8721 540.894 48.7025C542.509 45.4814 541.684 45.6376 556.256 45.7886L569.709 45.9276L570.942 48.1951ZM552.443 48.8504C549.375 50.6549 548.076 53.1267 548.076 57.163C548.076 61.2344 549.402 63.7198 552.52 65.4965C556.069 67.5189 560.216 66.3196 562.778 62.5299C563.825 60.981 564.058 60.0048 564.058 57.163C564.058 54.3213 563.825 53.3451 562.778 51.7962C560.215 48.0049 555.949 46.7889 552.443 48.8504ZM539.349 55.8937C537.786 57.4787 538.918 60.2985 541.117 60.2985C542.347 60.2985 543.694 58.9325 543.694 57.6856C543.694 56.4387 542.347 55.0727 541.117 55.0727C540.591 55.0727 539.795 55.4422 539.349 55.8937ZM569.249 55.8937C568.804 56.3457 568.44 57.1521 568.44 57.6856C568.44 58.2192 568.804 59.0255 569.249 59.4775C569.695 59.929 570.491 60.2985 571.017 60.2985C571.544 60.2985 572.339 59.929 572.785 59.4775C573.23 59.0255 573.595 58.2192 573.595 57.6856C573.595 55.4563 570.813 54.3092 569.249 55.8937Z" fill="#36175E"/>
<rect width="92" height="92" transform="translate(338.75 0.75)" fill="white"/>
<circle cx="384.75" cy="46.75" r="45" stroke="#36175E" stroke-width="2"/>
<path fill-rule="evenodd" clip-rule="evenodd" d="M380.226 22.9534C379.979 23.0392 378.664 23.4161 377.305 23.7908L374.832 24.4727L375.057 28.5452C375.251 32.0599 375.172 32.7164 374.483 33.3354C373.746 33.9972 373.373 33.9539 369.658 32.7745C367.444 32.0711 365.559 31.583 365.468 31.6892C365.009 32.2283 362.022 37.5579 362.022 37.8379C362.022 38.017 363.407 39.33 365.099 40.7555C369.189 44.2024 369.097 44.878 364.212 47.3187C362.249 48.2995 361.255 48.7895 360.903 49.5694C360.539 50.3739 360.858 51.487 361.499 53.7657L362.252 56.4453L366.593 56.2908C372.15 56.0934 372.409 56.3957 370.777 61.1644C370.165 62.9535 369.667 64.7336 369.672 65.1204C369.68 65.7465 374.886 69.1794 375.814 69.1692C376.015 69.1669 377.293 67.8732 378.653 66.2945C380.55 64.091 381.413 63.417 382.364 63.3956C383.48 63.3702 383.794 63.7475 385.503 67.1716C386.838 69.8462 387.591 70.9033 388.04 70.7323C388.391 70.5983 389.985 70.1628 391.582 69.764L394.486 69.0392L394.3 64.8158C394.128 60.8974 394.183 60.5472 395.068 59.9711C395.91 59.4232 396.474 59.5027 399.894 60.6513L403.767 61.9518L405.662 58.7814L407.558 55.611L404.416 52.6787C400.324 48.8608 400.382 48.3007 405.094 46.0446C406.991 45.1362 408.627 44.3421 408.73 44.2796C408.832 44.2171 408.54 42.5308 408.08 40.5318L407.245 36.8974L403.098 37.1435C399.434 37.3605 398.862 37.2922 398.192 36.5576C397.479 35.7742 397.512 35.4973 398.769 31.7741L400.103 27.8222L396.781 25.8978L393.458 23.973L391.742 25.9179C390.798 26.9879 389.537 28.4318 388.94 29.1262C387.159 31.1962 385.953 30.5035 383.954 26.2618C382.338 22.8328 381.843 22.3938 380.226 22.9534ZM388.808 39.669C390.697 40.8492 391.861 42.503 392.504 44.9201C393.995 50.5194 388.452 55.974 382.762 54.5085C380.226 53.8552 377.688 51.2544 376.976 48.5785C376.077 45.1982 377.943 41.0501 381.065 39.4942C383.191 38.4339 386.97 38.5193 388.808 39.669Z" fill="#36175E"/>
</svg>
