<svg width="90" height="74" viewBox="0 0 90 74" fill="none" xmlns="http://www.w3.org/2000/svg">
<path fill-rule="evenodd" clip-rule="evenodd" d="M4.29563 38.9518C1.50291 34.1146 3.16023 27.9294 7.99738 25.1367L49.1857 1.35662C54.0228 -1.43611 60.208 0.221227 63.0007 5.05837C64.6008 7.82967 64.7401 11.0435 63.6576 13.8083L67.4401 11.6244C74.494 7.55189 83.5137 9.96872 87.5863 17.0226C91.6588 24.0765 89.242 33.0962 82.1881 37.1687L79.8796 38.5015C81.8342 39.0244 83.5892 40.2933 84.6808 42.184C86.8628 45.9634 85.5679 50.796 81.7885 52.978L49.6073 71.5579C45.8279 73.7399 40.9953 72.445 38.8133 68.6656C37.7217 66.7749 37.5003 64.6206 38.0247 62.6665L22.1245 71.8465C15.0706 75.919 6.05087 73.5022 1.97832 66.4483C-2.09423 59.3945 0.322605 50.3747 7.37647 46.3022L11.5448 43.8956C8.6092 43.4506 5.89564 41.7231 4.29563 38.9518Z" fill="#E3C2F1"/>
<path d="M36.1731 16.7804C35.9321 16.3866 37.4667 13.5748 39.5838 10.5326L43.4341 5L55.3611 8.96374C61.9208 11.1436 67.2882 13.2434 67.2882 13.6307C67.2882 14.018 65.014 15.2094 62.2338 16.2769C59.4546 17.3443 56.1977 19.206 54.9979 20.4128L52.8165 22.607L44.7146 20.0519C40.259 18.6454 36.4153 17.1743 36.1731 16.7804Z" fill="#2E2E2E"/>
<path d="M15.9773 13.5616L19.5461 11.9928C24.6115 9.7657 25.1503 9.86444 27.8258 13.5034L30.2211 16.7618L26.9947 18.4403C22.4398 20.8089 21.1255 20.5642 18.3878 16.8408L15.9773 13.5616Z" fill="#2E2E2E"/>
<path d="M36.653 26.4292C26.2966 22.9043 25.5353 22.4611 28.0222 21.4101C31.9586 19.7469 33.4878 19.8577 41.8144 22.4161C50.7136 25.1489 51.38 25.6591 49.4734 28.2822C48.0729 30.2086 47.5232 30.1285 36.653 26.4292Z" fill="#2E2E2E"/>
<path d="M54.2366 27.105C53.917 26.7825 55.2586 25.0798 57.2165 23.319C61.5161 19.4562 63.8851 19.0579 61.5772 22.5872C59.8582 25.2158 55.2052 28.0792 54.2366 27.105Z" fill="#2E2E2E"/>
<path d="M22.5685 59.4348V42.5189C22.5685 33.2157 22.9557 25.6042 23.428 25.6042C23.9014 25.6042 29.1772 27.2509 35.1533 29.263C44.0656 32.2635 46.0813 33.3474 46.3681 35.2969C46.8044 38.2754 49.8366 38.4477 49.8366 35.4922C49.8366 34.0254 51.127 32.7714 53.7872 31.6524C55.96 30.7396 57.9233 29.9925 58.1501 29.9925C58.377 29.9925 58.5624 31.7204 58.5624 33.8323C58.5624 36.2085 59.0914 37.672 59.9498 37.672C62.3876 37.672 69.6878 44.5123 71.241 48.2512C75.8209 59.2768 68.9287 71.5805 57.0888 73.5125C52.0704 74.332 46.0431 72.185 41.2406 67.8669C38.9992 65.8516 34.1117 63.2625 29.9309 61.8758L22.5685 59.4348Z" fill="#2E2E2E"/>
<circle cx="55.7707" cy="55.6956" r="14.7181" fill="white"/>
<path fill-rule="evenodd" clip-rule="evenodd" d="M43.5254 55.1256C44.3438 51.1375 47.9953 46.6664 51.6253 45.2045C54.5685 44.0198 57.8682 43.9149 57.8682 45.0078C57.8682 45.2596 57.0934 45.5051 55.9676 45.8617C54.9844 46.1731 53.7336 46.5694 52.497 47.1288C48.8466 48.7798 47.0715 51.0766 46.1123 53.9663C44.378 59.191 42.4971 60.1282 43.5254 55.1256ZM48.7876 55.9246C48.7876 53.3409 50.5436 50.8612 53.774 49.7042C56.379 48.7727 57.8682 48.7827 58.4539 49.7042C58.7236 50.1285 57.668 50.3994 56.3596 50.7352L56.3596 50.7352L56.3595 50.7352L56.3595 50.7352C55.746 50.8926 55.077 51.0643 54.463 51.2728C52.2734 52.0154 51.3642 53.4647 50.9363 55.1256C50.0589 58.527 48.7876 59.306 48.7876 55.9246ZM58.4963 55.6956C58.4963 57.2009 57.276 58.4212 55.7707 58.4212C54.2654 58.4212 53.0451 57.2009 53.0451 55.6956C53.0451 54.1903 54.2654 52.97 55.7707 52.97C57.276 52.97 58.4963 54.1903 58.4963 55.6956ZM59.9161 67.277C63.5461 65.815 67.1976 61.344 68.016 57.3559C69.0443 52.3533 67.1634 53.2904 65.4291 58.5151C64.4699 61.4049 62.6948 63.7017 59.0444 65.3527C57.8078 65.9121 56.557 66.3083 55.5739 66.6197L55.5738 66.6198C54.448 66.9764 53.6732 67.2218 53.6732 67.4737C53.6732 68.5666 56.9729 68.4616 59.9161 67.277ZM57.7674 62.7772C60.9978 61.6203 62.7538 59.1405 62.7538 56.5569C62.7538 53.1754 61.4825 53.9545 60.6051 57.3559C60.1772 59.0168 59.268 60.4661 57.0784 61.2087C56.4643 61.4172 55.7953 61.5889 55.1818 61.7463L55.1818 61.7463C53.8734 62.0821 52.8178 62.3529 53.0875 62.7772C53.6732 63.6987 55.1624 63.7088 57.7674 62.7772Z" fill="#2E2E2E"/>
</svg>
