<svg width="90" height="74" viewBox="0 0 90 74" fill="none" xmlns="http://www.w3.org/2000/svg">
<path fill-rule="evenodd" clip-rule="evenodd" d="M4.29563 38.9518C1.50291 34.1146 3.16023 27.9294 7.99738 25.1367L49.1857 1.35662C54.0228 -1.43611 60.208 0.221227 63.0007 5.05837C64.6008 7.82967 64.7401 11.0435 63.6576 13.8083L67.4401 11.6244C74.494 7.55189 83.5137 9.96872 87.5863 17.0226C91.6588 24.0765 89.242 33.0962 82.1881 37.1687L79.8796 38.5015C81.8342 39.0244 83.5892 40.2933 84.6808 42.184C86.8628 45.9634 85.5679 50.796 81.7885 52.978L49.6073 71.5579C45.8279 73.7399 40.9953 72.445 38.8133 68.6656C37.7217 66.7749 37.5003 64.6206 38.0247 62.6665L22.1245 71.8465C15.0706 75.919 6.05087 73.5022 1.97832 66.4483C-2.09423 59.3945 0.322605 50.3747 7.37647 46.3022L11.5448 43.8956C8.6092 43.4506 5.89564 41.7231 4.29563 38.9518Z" fill="#E3C2F1" fill-opacity="0.73"/>
<path d="M19.2645 28.2526C19.2645 10.9191 19.3088 10.1451 20.3592 9.09474C21.4195 8.03448 22.1836 8 44.4434 8C66.7033 8 67.4674 8.03448 68.5276 9.09474C69.578 10.1451 69.6224 10.9191 69.6224 28.2526C69.6224 45.5861 69.578 46.3601 68.5276 47.4105C67.4674 48.4708 66.7033 48.5053 44.4434 48.5053C22.1836 48.5053 21.4195 48.4708 20.3592 47.4105C19.3088 46.3601 19.2645 45.5861 19.2645 28.2526Z" fill="#2E2E2E"/>
<path d="M11.4316 54.8L15.2112 52.235L18.9908 49.6701L44.3132 49.635L69.6355 49.6L73.5459 52.2L77.4569 54.8L60.9499 54.945C51.8712 55.0244 37.0156 55.0244 27.9375 54.945L11.4316 54.8Z" fill="#2E2E2E"/>
<path d="M12.2708 59.1477C11.6013 58.6792 11.054 57.8171 11.054 57.232C11.054 56.1903 11.7436 56.1684 44.4434 56.1684C77.1432 56.1684 77.8329 56.1903 77.8329 57.232C77.8329 57.8171 77.2855 58.6792 76.6161 59.1477C75.5504 59.8949 71.5754 60 44.4434 60C17.3115 60 13.3365 59.8949 12.2708 59.1477Z" fill="#2E2E2E"/>
<path d="M65.2434 26.6811C65.2434 13.7091 65.163 12.5005 64.2423 11.6674C63.3517 10.8611 61.1606 10.7615 44.3482 10.7615C26.7399 10.7615 25.3934 10.8293 24.5493 11.7626C23.7567 12.6384 23.6434 14.4918 23.6434 26.5771C23.6434 35.0531 23.8624 40.8005 24.21 41.4502C24.754 42.4661 25.5565 42.5088 44.15 42.5088C61.032 42.5088 63.6336 42.3983 64.3835 41.6489C65.1208 40.9111 65.2434 38.7763 65.2434 26.6811Z" fill="white"/>
<path d="M43.2179 45.8812C44.1101 46.7734 45.8119 46.1718 45.8119 44.9643C45.8119 44.2533 45.3855 43.8165 44.5781 43.7021C43.2053 43.5072 42.2977 44.9611 43.2179 45.8812Z" fill="white"/>
<path d="M65.4229 57.2899L65.423 57.2899C65.7557 57.337 65.948 57.442 66.0552 57.5517C66.1551 57.6539 66.2269 57.8068 66.2269 58.0571C66.2269 58.3949 65.9913 58.6924 65.5979 58.8315C65.2052 58.9703 64.7705 58.9043 64.4865 58.6204C64.2069 58.3408 64.2048 58.0075 64.3774 57.731C64.5566 57.4438 64.9334 57.2204 65.4229 57.2899Z" stroke="white"/>
<path d="M69.2365 57.2899L69.2366 57.2899C69.5693 57.337 69.7616 57.442 69.8688 57.5517C69.9687 57.6539 70.0405 57.8068 70.0405 58.0571C70.0405 58.3949 69.8049 58.6924 69.4115 58.8315C69.0188 58.9703 68.584 58.9043 68.3001 58.6204C68.0205 58.3408 68.0184 58.0075 68.191 57.731C68.3702 57.4438 68.747 57.2204 69.2365 57.2899Z" stroke="white"/>
<path d="M69.0571 53.7054L67.484 52.0632L65.9108 50.4211H43.94H21.9697L20.7792 51.6878C20.1246 52.3846 19.5892 53.1235 19.5892 53.3299C19.5892 53.5368 30.7194 53.7054 44.3232 53.7054H69.0571Z" fill="white"/>
</svg>
