<svg width="90" height="76" viewBox="0 0 90 76" fill="none" xmlns="http://www.w3.org/2000/svg">
<path fill-rule="evenodd" clip-rule="evenodd" d="M4.29563 38.9518C1.50291 34.1146 3.16023 27.9294 7.99738 25.1367L49.1857 1.35662C54.0228 -1.43611 60.208 0.221227 63.0007 5.05837C64.6008 7.82967 64.7401 11.0435 63.6576 13.8083L67.4401 11.6244C74.494 7.55189 83.5137 9.96872 87.5863 17.0226C91.6588 24.0765 89.242 33.0962 82.1881 37.1687L79.8796 38.5015C81.8342 39.0244 83.5892 40.2933 84.6808 42.184C86.8628 45.9634 85.5679 50.796 81.7885 52.978L49.6073 71.5579C45.8279 73.7399 40.9953 72.445 38.8133 68.6656C37.7217 66.7749 37.5003 64.6206 38.0247 62.6665L22.1245 71.8465C15.0706 75.919 6.05087 73.5022 1.97832 66.4483C-2.09423 59.3945 0.322605 50.3747 7.37647 46.3022L11.5448 43.8956C8.6092 43.4506 5.89564 41.7231 4.29563 38.9518Z" fill="#D9F9F5"/>
<path d="M15.5454 24.7643C15.5454 3.53552 15.6582 1.54642 16.9068 0.818793C17.7423 0.332413 26.8131 0.0164581 40.3781 0.00167216C59.8818 -0.0185613 62.6559 0.130077 63.9108 1.26626C65.227 2.4577 65.3336 4.25069 65.3336 25.2351C65.3336 49.4117 65.2761 49.7837 61.5069 49.7837C60.193 49.7837 58.217 51.0988 55.5051 53.7782C51.8597 57.379 51.5042 58.0296 51.8869 60.393L52.3124 63.0132H40.1525H27.9925V61.1136C27.9925 60.0685 28.3768 58.9766 28.8466 58.6864C30.2757 57.8023 21.7876 49.7837 19.4227 49.7837C15.5905 49.7837 15.5454 49.4926 15.5454 24.7643Z" fill="#2E2E2E"/>
<path d="M63.7263 25.2032C63.1812 16.4553 59.0066 9.82475 51.4203 5.65441C48.2692 3.92316 46.109 3.35861 41.8684 3.15972C34.4287 2.8105 30.1331 4.3272 24.9148 9.14352C19.3678 14.2629 17.1122 19.3517 17.1013 26.7692C17.0874 36.1309 21.9335 43.8679 30.4448 48.0727C36.3765 51.0035 44.5644 51.0857 50.3456 48.2716C59.2865 43.9196 64.349 35.1929 63.7263 25.2032Z" fill="white"/>
<path d="M32.7175 58.4813C32.8663 58.4813 32.1065 56.9842 31.0295 55.1535C29.8028 53.0683 28.411 51.7286 27.303 51.5657C25.7887 51.3426 26.0322 51.8225 28.9902 54.8935C30.8914 56.8667 32.5686 58.4813 32.7175 58.4813Z" fill="white"/>
<path d="M34.1201 55.4612C35.6918 58.5306 36.1748 58.0084 35.1684 54.3266C34.7334 52.7355 34.0449 51.4342 33.6386 51.4342C32.5709 51.4342 32.7275 52.741 34.1201 55.4612Z" fill="white"/>
<path d="M42.6454 55.9749C43.1564 53.9516 43.3828 52.1021 43.1478 51.8648C42.3686 51.0779 37.5519 51.4201 37.5519 52.2618C37.5519 52.7175 37.9466 54.6719 38.4289 56.606C39.5819 61.2297 41.3854 60.9596 42.6454 55.9749Z" fill="white"/>
<path d="M46.841 55.3806C47.7024 53.6752 48.4072 52.0896 48.4072 51.857C48.4072 50.6668 46.7316 51.6675 46.1656 53.196C43.9589 59.1516 44.3295 60.3511 46.841 55.3806Z" fill="white"/>
<path d="M51.0094 56.1651C52.9897 54.2452 54.6102 52.3949 54.6102 52.0543C54.6102 50.3591 52.0926 51.7763 50.4945 54.3705C47.2984 59.558 47.3442 59.7177 51.0094 56.1651Z" fill="white"/>
<path d="M26.4583 10.6188L29.574 7.92371C31.3948 6.34786 33.3538 5.32296 34.2889 5.45736C35.7278 5.66329 35.9109 6.33607 36.116 12.1703C36.3187 17.9109 36.5136 18.6544 37.8212 18.6544C38.9072 18.6544 39.6545 17.5635 40.6462 14.5281C43.1317 6.92239 43.8979 5.9085 46.7402 6.46889C50.6355 7.23678 53.4165 8.4786 53.866 9.64968C54.1127 10.2934 52.8012 11.8016 50.5687 13.4404C45.1332 17.4315 43.8484 19.0065 45.1497 20.0865C45.9363 20.7396 47.6313 20.4598 51.9077 18.9727C56.522 17.3678 57.8398 17.1737 58.7875 17.9604C60.5533 19.4262 62.2129 23.0299 62.2129 25.3996C62.2129 27.7221 62.8863 27.6906 52.5867 25.8562C49.1118 25.2369 48.854 25.3044 48.8548 26.8355C48.8556 27.9791 49.9997 29.1211 52.6197 30.5932C54.6895 31.7564 57.0312 33.4234 57.8233 34.299C59.2229 35.8458 59.2111 35.9943 57.3982 39.6514C54.7233 45.0462 52.8161 45.0627 50.5608 39.7127C49.5958 37.4248 48.2835 34.8609 47.6439 34.016C46.631 32.6775 46.3418 32.6272 45.3972 33.6231C44.5258 34.5426 44.4653 35.9023 45.0916 40.5662C45.9607 47.0465 45.9127 47.1353 40.7609 48.5618C37.5139 49.461 34.7038 48.9603 34.7196 47.4858C34.7251 46.9742 35.7859 44.4725 37.077 41.926C38.3681 39.3794 39.4242 36.8156 39.4242 36.2277C39.4242 34.0294 36.49 35.2862 32.7448 39.0894C30.616 41.2508 28.3309 43.0169 27.6669 43.0137C25.8705 43.0066 21.987 40.2267 20.879 38.1565C19.6492 35.8583 20.7423 34.3737 23.6639 34.3737C24.8309 34.3737 27.435 33.8117 29.4514 33.124C32.6827 32.0228 33.0222 31.6967 32.3142 30.3731C31.7115 29.246 30.587 28.8491 27.806 28.7792C20.5529 28.5968 19.4936 28.0679 18.8516 24.3094C18.2371 20.7081 19.1447 17.0825 20.6605 17.0825C21.1674 17.0825 23.0321 18.2654 24.8057 19.7116C29.5953 23.6162 31.6156 24.5609 32.414 23.2696C32.8155 22.6204 32.4619 21.3173 31.4867 19.8483C30.6207 18.5428 29.1348 15.9327 28.1855 14.0471L26.4583 10.6188Z" fill="#2E2E2E"/>
<path d="M67.2202 51.7883C67.9003 50.7652 68.9699 48.095 69.596 45.8546C71.3394 39.6168 73.6656 34.9084 75.6274 33.6459C78.4563 31.826 82.0784 33.6508 82.5685 37.1426C82.8409 39.0826 80.4961 44.2175 77.4043 48.4526C76.3981 49.8308 74.9375 52.2937 74.1581 53.9257L72.7411 56.8929L69.3616 55.2705L65.9826 53.6485L67.2202 51.7883Z" fill="#2E2E2E"/>
<path d="M61.7679 71.2596C60.6743 70.7346 60.4987 70.3564 60.821 69.2169C61.0386 68.4482 61.7611 66.9108 62.4271 65.8012C63.093 64.6916 64.6434 62.0137 65.8725 59.8509C67.7886 56.4795 68.2545 55.9466 69.1362 56.1204C70.464 56.3824 70.4408 56.4822 67.3984 63.7185C64.2285 71.2575 63.5783 72.1286 61.7679 71.2596Z" fill="#2E2E2E"/>
<path d="M75.7998 73.8359C73.8279 72.9834 71.9796 72.0396 71.6922 71.7376C71.4047 71.4362 71.4847 70.5287 71.8704 69.7211C72.3828 68.6481 72.8587 68.3095 73.6389 68.4635C74.2261 68.579 74.791 68.4967 74.8942 68.2806C75.0775 67.8968 78.5267 68.3422 79.7069 68.9024C80.0344 69.0579 80.1001 69.6074 79.8533 70.1242C79.5498 70.7598 79.7215 71.2159 80.3832 71.5335C81.2241 71.9372 81.2225 72.2425 80.3732 73.6943L79.3847 75.3853L75.7998 73.8359Z" fill="#2E2E2E"/>
<path d="M80.9899 67.7443C80.783 68.1774 77.418 67.7904 76.1467 67.1864C75.2045 66.7393 75.671 66.3997 77.0417 66.535C79.5363 66.7809 81.2057 67.2924 80.9899 67.7443Z" fill="#2E2E2E"/>
<path d="M78.8919 66.147C77.8694 66.0015 76.8512 65.7956 76.6288 65.6889C76.4065 65.5822 76.3154 65.3046 76.4265 65.072C76.6665 64.5694 81.9083 65.6316 82.1219 66.2261C82.2032 66.4522 81.9278 66.5862 81.5103 66.5238C81.0925 66.4619 79.9142 66.2918 78.8919 66.147Z" fill="#2E2E2E"/>
<path d="M82.7583 64.429C83.2034 65.0792 82.5808 65.1003 79.6644 64.5319C78.1654 64.2396 77.0271 63.8144 77.1354 63.5875C77.371 63.0943 82.3545 63.8402 82.7583 64.429Z" fill="#2E2E2E"/>
<path d="M83.2781 62.953C83.0768 63.3744 79.4914 63.0207 78.3337 62.465C77.0701 61.8584 78.349 61.4132 80.0404 61.8711C81.0562 62.1457 82.248 62.4013 82.6892 62.4387C83.1301 62.4765 83.3952 62.7077 83.2781 62.953Z" fill="#2E2E2E"/>
<path d="M81.8763 61.5351C80.8574 61.2597 79.663 61.0034 79.2219 60.966C78.781 60.9282 78.5159 60.697 78.633 60.4517C78.8571 59.9824 82.4723 60.4093 83.8428 61.0672C85.221 61.7288 83.8223 62.0616 81.8763 61.5351Z" fill="#2E2E2E"/>
<path d="M84.9446 60.2373C84.8915 60.2592 83.5552 60.0629 81.9753 59.8017L79.1024 59.3269L80.082 57.6524C81.0315 56.0298 81.1256 56.004 83.1546 56.8053C84.9601 57.5184 85.2333 57.8084 85.1443 58.9155C85.0876 59.6211 84.9979 60.2161 84.9446 60.2373Z" fill="#2E2E2E"/>
</svg>
