<svg width="90" height="85" viewBox="0 0 90 85" fill="none" xmlns="http://www.w3.org/2000/svg">
<path fill-rule="evenodd" clip-rule="evenodd" d="M57.8894 81.2731C54.0081 85.2896 47.6056 85.3992 43.5891 81.5179L9.38826 48.4684C5.37173 44.5871 5.26213 38.1846 9.14346 34.168C11.3671 31.8669 14.4184 30.8481 17.3743 31.1276L14.2336 28.0925C8.37636 22.4325 8.21653 13.0959 13.8766 7.23873C19.5366 1.38154 28.8731 1.2217 34.7303 6.88173L36.6472 8.73404C36.6117 6.71103 37.3484 4.67456 38.8655 3.10462C41.8981 -0.0335802 46.9005 -0.119216 50.0387 2.91335L76.7604 28.7356C79.8986 31.7682 79.9843 36.7705 76.9517 39.9087C75.4346 41.4787 73.4246 42.2847 71.4015 42.3185L84.6043 55.0768C90.4615 60.7369 90.6214 70.0734 84.9613 75.9306C79.3013 81.7878 69.9648 81.9477 64.1076 76.2876L60.6464 72.9429C61.0268 75.8876 60.1131 78.9719 57.8894 81.2731Z" fill="#D9F9F5"/>
<path d="M54.1953 42.1521C54.0884 22.1871 54.2006 16.6717 54.7195 16.342C55.0828 16.1113 61.1596 15.9231 68.2236 15.9231C75.2875 15.9231 81.3643 16.1113 81.7276 16.342C82.2466 16.6717 82.3587 22.1871 82.2518 42.1521L82.1155 67.5429H68.2236H54.3316L54.1953 42.1521Z" fill="#2E2E2E"/>
<path d="M0.0743949 41.1383C0.0743949 30.8174 -0.24003 22.9015 0.424057 22.023C1.08814 21.1445 25.7612 21.6733 25.7612 21.6733C51.8414 21.6733 48.5961 20.9986 49.384 23.0698C49.7158 23.9422 49.8584 31.0443 49.7646 41.9849C49.6209 58.6269 49.5627 59.5401 48.5961 60.2468C47.7547 60.8617 43.6432 60.9901 24.8403 60.9901C10.1689 60.9901 1.74248 60.7977 1.08825 60.4476C0.114763 59.9265 0.0743949 59.1559 0.0743949 41.1383Z" fill="#2E2E2E"/>
<path d="M17.7035 65.7082C20.7723 65.7082 22.0918 64.8301 22.0918 62.7877C22.0918 61.6092 22.2874 61.5144 24.7129 61.5144C26.8754 61.5144 27.3341 61.6774 27.3341 62.4459C27.3341 62.9586 27.7015 63.9022 28.1503 64.5428C28.8171 65.4953 29.4687 65.7082 31.715 65.7082C34.2386 65.7082 35.7217 66.3294 35.7217 67.3857C35.7217 67.6163 30.7677 67.8051 24.7129 67.8051C18.6581 67.8051 13.7042 67.6163 13.7042 67.3857C13.7042 66.3299 15.1867 65.7082 17.7035 65.7082Z" fill="#2E2E2E"/>
<path d="M24.7129 69.902C15.2769 69.902 13.7042 69.7898 13.7042 69.1156C13.7042 68.4415 15.2769 68.3293 24.7129 68.3293C34.149 68.3293 35.7217 68.4415 35.7217 69.1156C35.7217 69.7898 34.149 69.902 24.7129 69.902Z" fill="#2E2E2E"/>
<path d="M68.2236 69.902C59.7662 69.902 57.2149 69.7499 57.2149 69.2467C57.2149 68.7434 59.7662 68.5914 68.2236 68.5914C76.6809 68.5914 79.2323 68.7434 79.2323 69.2467C79.2323 69.7499 76.6809 69.902 68.2236 69.902Z" fill="#2E2E2E"/>
<path d="M44.9556 39.822C44.9556 27.3984 44.8785 26.2409 43.9967 25.443C43.1438 24.6708 41.0454 24.5754 24.9438 24.5754C8.08004 24.5754 6.79045 24.6404 5.98209 25.5342C5.22302 26.373 5.1145 28.148 5.1145 39.7224C5.1145 47.84 5.32419 53.3443 5.65708 53.9666C6.17816 54.9396 6.94666 54.9804 24.754 54.9804C40.9222 54.9804 43.4138 54.8746 44.132 54.1569C44.8381 53.4502 44.9556 51.4058 44.9556 39.822Z" fill="white"/>
<path d="M23.8613 58.2102C24.7158 59.0647 26.3456 58.4886 26.3456 57.3321C26.3456 56.6511 25.9372 56.2328 25.164 56.1233C23.8492 55.9366 22.9801 57.329 23.8613 58.2102Z" fill="white"/>
<rect x="58.7631" y="22.4307" width="19.1826" height="4.76647" stroke="white"/>
<rect x="58.7631" y="30.2942" width="19.1826" height="4.76647" stroke="white"/>
<line x1="59.2631" y1="41.5974" x2="59.2631" y2="49.9768" stroke="white" stroke-width="2"/>
<rect x="73.7035" y="59.1194" width="4.51152" height="4.51152" stroke="white"/>
</svg>
